<svg xmlns="http://www.w3.org/2000/svg" width="122.891" height="42.154" viewBox="0 0 122.891 42.154"><path d="M128.12,131.42A28.123,28.123,0,0,0,100,103.3v19.333h8.786v8.786Z" transform="translate(-100 -103.3)" fill="#fff"/><rect width="8.786" height="8.786" transform="translate(0 28.12)" fill="#fff"/><g transform="translate(36.889 19.283)"><path d="M322.549,253.26l2.7-1.559a2.622,2.622,0,0,1,.687-.1c2.683,0,3.924,1.593,3.924,3.773v4.511c0,3.2-2.431,4.024-4.947,4.024a4.218,4.218,0,0,1-2.381-.553v5.533H320V251.868h2.532v1.392Zm0,6.539c0,1.14.671,1.844,2.381,1.844s2.415-.687,2.415-1.844v-3.605c0-1.291-.52-2.012-1.509-2.012a2.727,2.727,0,0,0-.872.151l-2.415.52Z" transform="translate(-320 -246.016)" fill="#fff"/><path d="M399,235.923V218.3h2.532v17.623Z" transform="translate(-385.753 -218.3)" fill="#fff"/><path d="M440.026,261.778l-2.7,2.029a2.725,2.725,0,0,1-.687.1c-2.331,0-3.739-1.341-3.739-3.219v-.838c0-1.643,1.09-3.253,4.142-3.37l3-.117v-.838c0-1.241-.922-1.66-2.431-1.66-1.241,0-3.739.218-3.739.218v-2.23s3.421-.252,4.242-.252c2.431,0,4.46.771,4.46,3.974v8.065h-2.532v-1.861Zm0-3.521-3.035.168c-.889.05-1.61.553-1.61,1.409v.352a1.186,1.186,0,0,0,1.224,1.224,3.336,3.336,0,0,0,1.509-.4l1.912-.788Z" transform="translate(-413.969 -246.016)" fill="#fff"/><path d="M515.228,263.722v-7.445c0-1.341-.62-2.029-1.543-2.029a2.26,2.26,0,0,0-.838.168l-2.415.52v8.786H507.9V251.968h2.532v1.392l2.7-1.559a2.624,2.624,0,0,1,.688-.1c2.683,0,3.924,1.593,3.924,3.773v8.267h-2.515Z" transform="translate(-476.393 -246.1)" fill="#fff"/><path d="M583.917,218.3h2.532v7.244l2.7-1.559a2.622,2.622,0,0,1,.688-.1c2.683,0,3.924,1.593,3.924,3.773v4.511c0,3.2-2.431,4.024-4.947,4.024-2.5,0-4.913-.822-4.913-4.024V218.3Zm2.532,13.783c0,1.14.738,1.979,2.381,1.979,1.71,0,2.414-.838,2.414-1.979v-3.605c0-1.291-.52-2.012-1.509-2.012a2.727,2.727,0,0,0-.872.151l-2.415.52Z" transform="translate(-539.65 -218.3)" fill="#fff"/><path d="M662.9,235.923V218.3h2.532v17.623Z" transform="translate(-605.403 -218.3)" fill="#fff"/><path d="M700.715,253.117v7.445c0,1.291.52,2.012,1.509,2.012a2.726,2.726,0,0,0,.872-.151l2.415-.989v-8.317h2.532v11.754h-2.532V263.01l-2.7,2.029a2.622,2.622,0,0,1-.687.1c-2.683,0-3.924-1.593-3.924-3.773V253.1h2.515Z" transform="translate(-634.784 -247.265)" fill="#fff"/><path d="M784.043,255.742v3.035h-7.294v.671c0,1.878,1.291,2.28,3.119,2.28a34.04,34.04,0,0,0,3.773-.268v2.18a30.459,30.459,0,0,1-3.974.268c-2.683,0-5.466-.973-5.466-4.46v-3.706c0-2.431,1.241-4.142,4.946-4.142S784.043,253.31,784.043,255.742Zm-2.532,1.006v-1.14c0-.973-.319-1.861-2.364-1.861-1.761,0-2.415.637-2.415,1.912v1.09Z" transform="translate(-698.041 -246.016)" fill="#fff"/></g></svg>